<svg xmlns="http://www.w3.org/2000/svg" viewBox="0 0 3000 3000"><defs><style>.cls-1{fill:#4aad37;}.cls-2{fill:#fff;}</style></defs><g id="Layer_2" data-name="Layer 2"><g id="Layer_1-2" data-name="Layer 1"><rect class="cls-1" width="3000" height="3000"/><path class="cls-2" d="M2573,1695.5c-4.89-48.74-10-90-16-129.69-21-153.78-56.41-346.63-105.35-573.19-28.44-129.89-51.26-225-54.27-237C2346.26,516,2138.59,361.19,1868.34,361.19c-85.24,0-169.06,18.8-242.4,54.37-70.46,34.17-129.93,83-172.12,141.32-42.17-58.29-101.72-107.12-172.36-141.33C1208,380,1124.11,361.19,1038.84,361.19c-129,0-250.63,42-342.39,118.21-91.57,76.07-142,176.69-142,283.23-.12,1.45-11.21,162.07-5,370.83l-1.83,362.43H729.11l-.27-1.36c-59.4-310.14-37.41-686-34.7-727.82l.06-1.08c0-158.66,154.61-287.74,344.64-287.74,190.29,0,345.1,129.08,345.1,287.74V994h139.75V765.63c0-158.66,154.61-287.74,344.65-287.74,202,0,352.24,114.67,392.08,299.26.06.3.49,2.13,1.26,5.39,15.83,67.07,31.82,137.89,47.54,210.49,21.55,98,75.19,350,107.61,573,7.82,56.43,13.18,100.87,16.87,139.88l60.18,491.54c0,.11,0,.6.13,1.46,4.72,50.91,18.81,307.27-167.82,354.65-239.73,60.74-424.52,48.8-714-187.81-217.2-178.06-490.14-211.68-633.5-215.87l-.81,0L849.28,2301.27l3.24-.33,1.13-.16c41.58-6.14,413.34-54.14,660.68,148.12,215.54,176.4,393.56,251.66,595.24,251.66,79,0,163.09-11.61,257.18-35.49,303.91-76.64,270.78-438.19,266-479.38Z"/></g></g></svg>