<svg xmlns="http://www.w3.org/2000/svg" viewBox="0 0 3000 3000"><defs><style>.cls-1{fill:#4aad37;}.cls-2{fill:#fff;}</style></defs><g id="Layer_2" data-name="Layer 2"><g id="Layer_1-2" data-name="Layer 1"><rect class="cls-1" width="3000" height="3000"/><path class="cls-2" d="M1423.25,1752.55c-2.75-34.18-5.6-63.08-9-90.94-11.77-107.84-31.68-243.08-59.17-401.94-16-91.09-28.79-157.77-30.48-166.23-28.73-168-145.38-276.56-297.17-276.56A263,263,0,0,0,891.3,855a279.87,279.87,0,0,0-96.68,99.1A279.63,279.63,0,0,0,697.81,855a263.51,263.51,0,0,0-136.28-38.13c-72.48,0-140.78,29.44-192.31,82.89s-79.77,123.91-79.77,198.62c-.06,1-6.3,113.65-2.82,260l-1,254.16H387.56l-.15-1c-33.37-217.48-21-481-19.5-510.37l0-.76c0-111.26,86.84-201.77,193.58-201.77s193.84,90.51,193.84,201.77v160.15h78.5V1100.49c0-111.26,86.84-201.77,193.59-201.77,113.46,0,197.85,80.41,220.22,209.85l.71,3.78c8.89,47,17.88,96.69,26.7,147.6,12.11,68.72,42.24,245.42,60.45,401.84,4.39,39.57,7.4,70.73,9.47,98.09l33.81,344.68c0,.08,0,.42.07,1,2.65,35.7,10.56,215.48-94.26,248.7-134.66,42.59-238.45,34.22-401.05-131.7-122-124.86-275.3-148.44-355.83-151.38h-.45l-72.24,106.14,1.82-.22.63-.12c23.36-4.3,232.17-38,371.1,103.87,121.07,123.69,221.06,176.47,334.35,176.47,44.35,0,91.6-8.14,144.45-24.88,170.7-53.75,152.09-307.28,149.39-336.16Z"/><path class="cls-2" d="M2714.42,1622.74l-11.19-519.53C2703.23,945.38,2574.82,817,2417,817s-286.22,128.41-286.22,286.24l-11.21,519.53,89-26.54v-318h416.87v318Zm-505.87-422.33v-97.2c0-114.94,93.51-208.43,208.42-208.43s208.45,93.49,208.45,208.43v97.2Z"/><path class="cls-2" d="M1978.29,1514.62a352,352,0,0,1-127.91,23.76c-172.49,0-315.31-123.27-336.49-282.19l341.46,7-1.85-98.1-340.35,15.44c18.26-161.88,162.52-288.35,337.23-288.35a355,355,0,0,1,95.36,12.93l33.4,11,27.7-72.18-.71-.27,10.78-28.93H1850.38c-229.72,0-416.61,179.67-416.61,400.51s186.89,400.51,416.61,400.51h175.13l-45.25-101.92Z"/></g></g></svg>